<?xml version="1.0" standalone="no"?><!DOCTYPE svg PUBLIC "-//W3C//DTD SVG 1.1//EN" "http://www.w3.org/Graphics/SVG/1.1/DTD/svg11.dtd"><svg t="1539505090955" class="icon" style="" viewBox="0 0 1024 1024" version="1.1" xmlns="http://www.w3.org/2000/svg" p-id="6713" xmlns:xlink="http://www.w3.org/1999/xlink" width="32" height="32"><defs><style type="text/css"></style></defs><path d="M508.21574258 746.35495883c0 27.69151539-40.49155419 50.13913133-90.43984477 50.13913132s-90.43984477-22.44826708-90.43984412-50.13913132 40.49155419-50.13913133 90.43984412-50.13913133 90.43984477 22.44826708 90.43984477 50.13913133z m97.62993381-50.13913133c-49.94894108 0-90.43984477 22.44826708-90.43984477 50.13913133s40.49155419 50.13913133 90.43984477 50.13913132 90.43984477-22.44826708 90.43984412-50.13913132-40.49155419-50.13913133-90.43984412-50.13913133z" fill="#FFC817" p-id="6714"></path><path d="M711.80032486 505.87549537s-6.84423043-7.01683417-14.19063959-13.5073891V412.21870633c0-102.50973698-83.10059941-185.61033639-185.61033641-185.61033642S326.38966361 309.70896934 326.38966361 412.21870633v80.14939994c-7.34575802 6.49055497-14.19063959 13.50738911-14.19063961 13.5073891-12.10897273 18.16378434-40.86802594 65.08662253-40.86802658 109.36048009s12.10897273 51.84237302 16.65008177 52.22079884c4.21153338 0.35106964 19.81491891-3.85916083 38.35712903-32.24174359 25.09464188 83.44515574 98.63885183 143.87277786 185.47225329 143.87277786 86.97083345 0 160.61274307-60.61781172 185.59340168-144.26813776 18.65554229 28.73886213 34.38398429 32.98947603 38.61505762 32.63710349 4.54110903-0.3784258 16.65008112-7.94694065 16.65008177-52.22079884S723.90929695 524.03927971 711.80032486 505.87549537z" fill="#37474F" p-id="6715"></path><path d="M375.44171653 537.66195503a238.91625957 238.91625957 0 0 0-2.21063146 32.54331125c0 101.36013002 63.14043295 183.52866892 141.0277454 183.52866892s141.02774543-82.16853888 141.02774544-183.52866892a239.02047322 239.02047322 0 0 0-2.21063146-32.54331125H375.44171653zM463.18503341 311.75090518c-20.69031369 0-37.46284611 22.74462439-37.46284609 50.80153896 0 28.05691457 16.77253242 50.80153897 37.46284608 50.80153959s37.46284611-22.74462439 37.46284548-50.80153959c0-28.05691457-16.77318355-50.80153897-37.46284548-50.80153896z m6.24369895 71.70874729c-7.52357278 0-13.62267531-9.31800085-13.62267531-20.81276434s6.09910252-20.81276433 13.62267531-20.81276435c7.52357278 0 13.62267531 9.31800085 13.62267532 20.81276435s-6.09910252 20.81276433-13.62267532 20.81276434zM561.950244 311.75090518c-20.69031369 0-37.46284611 22.74462439-37.4628461 50.80153896 0 28.05691457 16.77253242 50.80153897 37.4628461 50.80153959s37.46284611-22.74462439 37.4628461-50.80153959c-0.00065115-28.05691457-16.77318355-50.80153897-37.4628461-50.80153896z m6.32185933 52.69431914l-0.01953993 0.00325696c0.00065115 0.01367777 0.01498069 0.02149399 0.01498067 0.03517177 0 0.57056948-0.46244772 1.03301783-1.03301783 1.03301783-0.47026396 0-0.80179366-0.34651039-0.92619838-0.77574041l-0.03973164 0.00586218v0.09509513c-2.38584103-5.93952541-6.60909814-9.95175004-11.50779011-9.95175068-4.89673793 0-9.11804096 4.00766537-11.50453314 9.94263153l-0.03777759-0.02344806-0.03517176-0.0078156c-0.16804447 0.35497775-0.45984253 0.63830843-0.87865177 0.63830844a1.04864966 1.04864966 0 0 1-1.04930079-1.04930143c0-0.01042143 0.01107257-0.01628361 0.01107256-0.02605325l-0.02279628-0.00521039c-0.03712582-0.56991833-0.10616769-1.12550713-0.10616769-1.71105793 0-11.49476348 6.09910252-20.81276433 13.62267532-20.81276435s13.62267531 9.31800085 13.62267531 20.81276435c0 0.61486038-0.07034416 1.19910826-0.11072695 1.79703391z" fill="#FFFFFF" p-id="6716"></path><path d="M365.088092 527.44511132c-3.40583161 17.02850692-10.5952695 93.46725058-7.19008903 110.49575751s17.72999507 14.18477741 38.21969771 14.37952694c19.86637426 0.18888733 43.13858077 5.67638645 43.51700593-19.29906176 0.3784258-24.97479644 0.3784258-74.16818882 6.05481227-92.33197318 5.67573467-18.16378434-80.60142623-13.24424951-80.60142688-13.24424951z" fill="#FF3B30" p-id="6717"></path><path d="M360.55805617 563.93095421l79.90514914 25.83260468c0.69367191-19.6175642 2.09729932-39.06122239 5.22631356-49.07484919 5.67638645-18.16378434-80.60142623-13.24424951-80.60142687-13.24424951-1.24014219 6.19940804-2.98116083 20.27345915-4.53003583 36.48649402z" fill="#DD2C00" p-id="6718"></path><path d="M512.3784258 483.92745361c62.27936771 0 112.7663117-22.70489337 112.7663117-36.7059945 0-10.5952695-50.48694399-21.56961596-112.7663117-21.56961595-62.27871657 0-112.7663117 9.83906903-112.76631233 21.56961595 0 13.24490128 50.48694399 36.70599449 112.76631233 36.7059945z" fill="#FFC817" p-id="6719"></path><path d="M513.51370322 497.55078005s71.51920882 0.75685161 128.65954185-23.46174433c57.13968188-24.21794482 56.57236876-26.9613688 62.8160677-26.96136881 6.24369895 0 13.62267531 8.98972813 16.7445251 25.21253392 3.12184978 16.22280516 6.81166323 28.99418551-6.5276814 36.94112615-13.3386935 7.94628951-100.75178297 59.31579275-199.23301173 59.31579274h-4.91953482c-98.48122876 0-185.89431887-51.36950323-199.23301173-59.31579274s-9.64953056-20.71766987-6.52768141-36.94112615c3.12184978-16.22280516 10.50082615-25.21253392 16.74452511-25.21253393s5.67638645 2.74342399 62.81606771 26.96136882 128.66019298 23.46174499 128.66019362 23.46174433z" fill="#FF3B30" p-id="6720"></path></svg>