<?xml version="1.0" standalone="no"?><!DOCTYPE svg PUBLIC "-//W3C//DTD SVG 1.1//EN" "http://www.w3.org/Graphics/SVG/1.1/DTD/svg11.dtd"><svg t="1539505134055" class="icon" style="" viewBox="0 0 1024 1024" version="1.1" xmlns="http://www.w3.org/2000/svg" p-id="6844" xmlns:xlink="http://www.w3.org/1999/xlink" width="32" height="32"><defs><style type="text/css"></style></defs><path d="M505.18874 922.439245c0 48.4086-70.788455 87.694976-158.118542 87.694975S189.073287 970.847844 189.073287 922.439245s70.788455-87.573346 158.118541-87.573346 158.118541 39.286376 157.996912 87.573346z m170.768024-87.573346c-87.330087 0-158.118541 39.286376-158.118541 87.694975s70.788455 87.694976 158.118541 87.694976 158.118541-39.286376 158.118542-87.694976-70.910084-87.694976-158.118542-87.694975z m0 0" fill="#FFC716" p-id="6845"></path><path d="M861.077088 501.722295s-11.919705-11.919705-24.690819-23.839411V338.373679c0-115.913054-61.787861-223.068773-162.253949-280.964486C573.787861-0.608148 450.09051-0.608148 349.624421 57.409193 249.279962 115.304906 187.370472 222.460625 187.370472 338.373679V478.004514c-13.014372 11.919705-24.812448 23.839411-24.812448 23.83941-21.041929 31.988597-71.396603 113.966979-71.396603 191.445065s21.163559 90.614087 29.191115 91.222236c8.027557 0.608148 34.664449-6.81126 67.017936-56.801046 43.786673 145.955577 172.34921 251.65174 324.143009 251.65174s280.842855-105.696163 324.507899-251.53011c32.596745 50.233044 60.085046 57.652453 67.504454 57.044305 7.419408-0.729778 29.191115-13.86578 29.191116-91.222236s-50.354674-159.456468-71.396603-191.201805l-0.243259-0.729778z m0 0" fill="#37464F" p-id="6846"></path><path d="M273.241002 557.671933c-2.432593 18.852595-3.648889 37.82682-3.527259 56.922674 0 177.214396 110.43972 321.223898 246.543295 321.223899 136.103575 0 246.543295-143.644613 246.543295-321.223899 0-18.974225-1.216296-38.07008-3.770519-56.922674H273.241002z m153.374986-394.931465c-35.637487 0-65.43675 39.772895-65.436751 88.789642s29.312745 88.789642 65.436751 88.789643c36.124005 0 65.43675-39.772895 65.43675-88.789643s-29.312745-88.789642-65.43675-88.789642z m10.825038 124.792018c-13.257632 0-23.839411-16.298373-23.839411-36.367264s10.703409-36.367265 23.839411-36.367265 23.839411 16.298373 23.839411 36.367265c-0.12163 20.068892-10.825039 36.367265-23.839411 36.367264z m161.767431-124.792018c-35.637487 0-65.43675 39.772895-65.43675 88.789642s29.312745 88.789642 65.43675 88.789643c36.124005 0 65.43675-39.772895 65.43675-88.789643s-29.312745-88.789642-65.43675-88.789642z m11.068298 92.073643c0 0.973037-0.851408 1.824445-1.824445 1.824445-0.851408 0-1.459556-0.486519-1.702815-1.337926-2.554223-9.365483-10.46015-16.176743-20.068892-17.39304-9.487112 1.337926-17.27141 8.270816-19.582373 17.636299-0.243259 0.608148-0.851408 1.094667-1.581185 1.094667-0.973037 0-1.824445-0.851408-1.824445-1.824445v-2.919112c0-20.068892 10.703409-36.367265 23.839411-36.367264s23.839411 16.298373 23.839411 36.367264v3.040742l-1.094667-0.12163z m0 0" fill="#FFFFFF" p-id="6847"></path><path d="M254.996555 539.792374c-5.959853 29.799264-18.609336 163.348616-12.649483 193.14788s30.89393 24.690818 66.896306 25.055708c35.880746 0.364889 75.410381 9.852001 76.01853-33.813042s0.729778-129.657204 10.581779-161.402542c9.852001-31.745338-140.847131-22.988003-140.847132-22.988004z m0 0" fill="#FF3A2F" p-id="6848"></path><path d="M247.090628 603.52631L386.843093 648.772538c0-28.826226 3.040741-57.652453 9.122224-85.748901 9.852001-31.745338-140.847131-23.231263-140.847132-23.231263-2.189334 10.825039-5.230075 35.759116-8.027557 63.733936z m0 0" fill="#DD2C00" p-id="6849"></path><path d="M512.486519 463.652215c108.858534 0 197.404917-39.651265 197.404917-64.098824 0-18.609336-88.303124-37.705191-197.161658-37.705191s-197.161658 17.27141-197.161658 37.705191c0 23.231263 88.303124 64.098824 197.161658 64.098824h-0.243259z m0 0" fill="#FFC716" p-id="6850"></path><path d="M514.432593 487.613256s125.035277 1.337926 224.893218-41.110821c99.85794-42.327117 98.884903-47.557192 109.831571-47.557192s23.839411 15.690224 29.312745 44.029932c5.473334 28.339708 11.919705 50.719563-11.919705 64.585343-23.839411 13.86578-176.119729 103.628459-348.22568 103.628459h-8.514076c-172.22758 0-324.994417-89.884309-348.22568-103.628459C138.232094 493.816368 144.678465 471.923031 149.665281 442.975175 154.530467 414.027319 167.909728 398.945243 178.856396 398.945243s9.852001 4.743556 109.831572 47.557192 224.893218 41.110821 224.893217 41.110821h0.851408z m0 0" fill="#FF3A2F" p-id="6851"></path></svg>
